<?xml version="1.0" encoding="UTF-8"?>
<svg viewBox="0 0 540 350" xmlns="http://www.w3.org/2000/svg">
 <defs>
  <linearGradient id="a" x1="1.659" x2="1.663" y1="3.422" y2="3.673">
   <stop stop-color="#fddea5" offset="0"/>
   <stop stop-color="#f5a800" offset="1"/>
  </linearGradient>
 </defs>
 <g fill="#fc0">
  <path d="m285.39 159.98c55.54 35.451 123.43 87.476 161.27 105.86l113.43-16.234-0.9176 42.285-112.43 1.1719c-31.644 27.74-96.854 70.947-174.9 44.654-110.61-37.268-122-127.34-122-127.34l1.0679-49.326s29.938-20.148 70.275-20.148c19.683 0 41.84 4.7957 64.206 19.08" fill="#aae2ff" stroke-width="15"/>
 </g>
 <path d="m164.96 154.27c11.162 0.30038-2.4077 40.321-13.196 34.535-10.788-5.7806-25.141-27.79-25.141-27.79s26.116-6.7505 37.657-6.7505c0.23636 0 0.45795 0 0.6795 0.004944" fill="url(#a)"/>
 <path d="m229.2 176.6c-2.5506 7.5481-10.724 11.581-18.267 9.0303-7.5382-2.5604-11.595-10.739-9.0203-18.282 2.5456-7.5481 10.729-11.576 18.282-9.0253 7.5235 2.5652 11.566 10.739 9.0056 18.277" fill="#1a171b"/>
 <path d="m232.55 169.24c-2.4262 6.1138-10.199 9.4008-17.317 7.3201-7.1606-2.081-10.993-8.729-8.5992-14.852 2.4585-6.1413 10.231-9.4193 17.359-7.3383 7.1499 2.0714 10.982 8.7287 8.5562 14.87" fill="#ffa"/>
 <g fill="#ff0">
  <path d="m435.47 131.42c18.454 15.51 4.9238 65.358-6.78 70.262 0 0 45.929 22.029 25.968 59.75s-122.47 48.135-185.73-43.689c0 0 71.759-98.736 132.93-98.751 11.797 0 23.191 3.6682 33.61 12.428" fill="rgba(63, 210, 182, 255)"/>
 </g>
</svg>
